Coordinates
version=1
nRows=43
nColumns=12
inDegrees=yes

Units are S.I. units (second, meters, Newtons, ...)
Angles are in degrees

endheader
time	SC_y	SC_z	SC_x	AC_y	AC_z	AC_x	GH_y	GH_z	GH_yy	EL_x	PS_y
       0.0              -25.24           36.7          58.16          33.22          1.313         -17.33          37.16          52.74         -36.71           9.13          87.51
 0.0004792              -25.24          36.69          58.16          33.22          1.311         -17.33          37.17          52.74         -36.72          9.135          87.51
 0.0009584              -25.24          36.69          58.17          33.22           1.31         -17.32          37.19          52.75         -36.73          9.141           87.5
  0.001438              -25.24          36.68          58.17          33.22          1.308         -17.32           37.2          52.75         -36.74          9.146           87.5
  0.001917              -25.24          36.68          58.18          33.22          1.306         -17.31          37.21          52.76         -36.76          9.152           87.5
  0.002396              -25.24          36.67          58.18          33.22          1.304         -17.31          37.23          52.77         -36.77          9.158          87.49
  0.002875              -25.25          36.67          58.19          33.22          1.302          -17.3          37.24          52.77         -36.78          9.165          87.49
  0.003355              -25.25          36.66          58.19          33.22            1.3         -17.29          37.26          52.78          -36.8          9.172          87.48
  0.003834              -25.25          36.65           58.2          33.22          1.297         -17.29          37.27          52.79         -36.81          9.179          87.48
  0.004313              -25.25          36.65          58.21          33.22          1.295         -17.28          37.29           52.8         -36.83          9.188          87.47
  0.004792              -25.25          36.64          58.21          33.22          1.292         -17.27          37.31          52.81         -36.85          9.196          87.47
  0.005271              -25.25          36.63          58.22          33.22          1.289         -17.26          37.33          52.82         -36.87          9.206          87.46
  0.005751              -25.25          36.62          58.23          33.22          1.286         -17.25          37.36          52.83         -36.89          9.216          87.45
   0.00623              -25.25          36.61          58.24          33.22          1.282         -17.24          37.38          52.84         -36.91          9.227          87.45
  0.006709              -25.25           36.6          58.25          33.22          1.279         -17.23          37.41          52.85         -36.94          9.239          87.44
  0.007188              -25.25          36.59          58.26          33.22          1.275         -17.21          37.44          52.87         -36.97          9.252          87.43
  0.007667              -25.25          36.57          58.27          33.22           1.27          -17.2          37.47          52.88          -37.0          9.266          87.42
  0.008147              -25.25          36.56          58.28          33.22          1.265         -17.18           37.5           52.9         -37.03          9.281          87.41
  0.008626              -25.25          36.54          58.29          33.22           1.26         -17.17          37.54          52.91         -37.06          9.298           87.4
  0.009105              -25.25          36.53          58.31          33.22          1.254         -17.15          37.58          52.93          -37.1          9.316          87.39
  0.009584              -25.26          36.51          58.32          33.22          1.248         -17.13          37.62          52.96         -37.15          9.336          87.38
   0.01006              -25.26          36.49          58.34          33.23          1.241         -17.11          37.67          52.98         -37.19          9.359          87.36
   0.01054              -25.26          36.46          58.36          33.23          1.233         -17.08          37.73           53.0         -37.24          9.383          87.35
   0.01102              -25.26          36.44          58.38          33.23          1.225         -17.05          37.79          53.03          -37.3           9.41          87.33
    0.0115              -25.26          36.41          58.41          33.23          1.215         -17.02          37.86          53.06         -37.36           9.44          87.31
   0.01198              -25.26          36.38          58.43          33.23          1.205         -16.99          37.93           53.1         -37.43          9.474          87.29
   0.01246              -25.27          36.35          58.46          33.23          1.193         -16.95          38.02          53.14         -37.51          9.511          87.26
   0.01294              -25.27          36.31           58.5          33.23           1.18         -16.91          38.11          53.18          -37.6          9.554          87.24
   0.01342              -25.27          36.26          58.54          33.23          1.165         -16.86          38.22          53.24          -37.7          9.601          87.21
    0.0139              -25.27          36.21          58.58          33.23          1.148         -16.81          38.34          53.29         -37.82          9.656          87.17
   0.01438              -25.28          36.15          58.63          33.23          1.128         -16.75          38.48          53.36         -37.95          9.717          87.13
   0.01486              -25.28          36.09          58.69          33.24          1.106         -16.68          38.64          53.43          -38.1          9.789          87.08
   0.01533              -25.29          36.01          58.75          33.24           1.08         -16.59          38.82          53.52         -38.27          9.871          87.03
   0.01581              -25.29          35.92          58.83          33.24           1.05          -16.5          39.03          53.62         -38.47          9.966          86.97
   0.01629               -25.3          35.82          58.92          33.24          1.015         -16.39          39.28          53.74         -38.71          10.08           86.9
   0.01677              -25.31           35.7          59.02          33.25         0.9738         -16.25          39.58          53.88         -38.99          10.21          86.81
   0.01725              -25.31          35.55          59.15          33.25         0.9247          -16.1          39.93          54.04         -39.32          10.37          86.71
   0.01773              -25.33          35.38           59.3          33.25         0.8659         -15.91          40.34          54.24         -39.71          10.55          86.59
   0.01821              -25.34          35.17          59.48          33.26         0.7947         -15.68          40.85          54.48         -40.19          10.78          86.45
   0.01869              -25.35          34.91           59.7          33.27         0.7077         -15.41          41.47          54.78         -40.77          11.06          86.27
   0.01917              -25.37           34.6          59.98          33.28         0.6003         -15.06          42.24          55.14         -41.49           11.4          86.05
   0.01965               -25.4           34.2          60.32          33.29         0.4664         -14.64          43.19          55.59         -42.39          11.82          85.77
   0.02013              -25.43           33.7          60.75           33.3         0.2977          -14.1          44.39          56.16         -43.52          12.36          85.42
